<svg xmlns="http://www.w3.org/2000/svg" width="30.364" height="26" viewBox="0 0 30.364 26">
  <g id="iconfinder_Essentials_photo_camera_5298738" transform="translate(1 1)">
    <g id="Group_173" data-name="Group 173">
      <path id="Path_2" data-name="Path 2" d="M24.818,9.364,23.291,6.2A2.061,2.061,0,0,0,21.327,5H13.145a2.061,2.061,0,0,0-1.964,1.2L9.545,9.364H5.182A2.188,2.188,0,0,0,3,11.545V26.818A2.188,2.188,0,0,0,5.182,29h24a2.188,2.188,0,0,0,2.182-2.182V11.545a2.188,2.188,0,0,0-2.182-2.182Z" transform="translate(-3 -5)" fill="none" stroke="#000" stroke-linejoin="round" stroke-miterlimit="10" stroke-width="2"/>
      <path id="Path_10" data-name="Path 10" d="M16,12V23.667" transform="translate(-1.818 -3.919)" fill="none" stroke="#000" stroke-width="2"/>
      <path id="Path_16" data-name="Path 16" d="M0,0V11.667" transform="translate(20.016 13.915) rotate(90)" fill="none" stroke="#000" stroke-width="2"/>
    </g>
  </g>
</svg>
