<svg xmlns="http://www.w3.org/2000/svg" width="25.563" height="23.503" viewBox="0 0 25.563 23.503">
  <g id="iconfinder_Essentials_photo_camera_5298738" transform="translate(-1.988 -4.247)">
    <path id="Path_2" data-name="Path 2" d="M21.51,9l-1.3-2.9A1.739,1.739,0,0,0,18.548,5H11.607A1.739,1.739,0,0,0,9.941,6.1L8.553,9h-3.7A1.936,1.936,0,0,0,3,11V25a1.936,1.936,0,0,0,1.851,2H25.212a1.936,1.936,0,0,0,1.851-2V11a1.936,1.936,0,0,0-1.851-2Z" transform="translate(-0.262)" fill="none" stroke="#000" stroke-linejoin="round" stroke-miterlimit="10" stroke-width="1.5"/>
    <path id="Ellipse_37" data-name="Ellipse 37" d="M5.5,0A5.5,5.5,0,1,1,0,5.5,5.5,5.5,0,0,1,5.5,0Z" transform="translate(9 11.998)" fill="none" stroke="#000" stroke-width="1.5"/>
  </g>
</svg>
