<svg xmlns="http://www.w3.org/2000/svg" width="28" height="24" viewBox="0 0 28 24">
  <g id="iconfinder_Essentials_photo_camera_5298738" transform="translate(-2 -4)">
    <path id="Path_2" data-name="Path 2" d="M23,9,21.6,6.1A1.889,1.889,0,0,0,19.8,5H12.3a1.889,1.889,0,0,0-1.8,1.1L9,9H5a2.006,2.006,0,0,0-2,2V25a2.006,2.006,0,0,0,2,2H27a2.006,2.006,0,0,0,2-2V11a2.006,2.006,0,0,0-2-2Z" fill="#2979FF" stroke="#2979FF" stroke-linejoin="round" stroke-miterlimit="10" stroke-width="2"/>
    <circle id="Ellipse_37" data-name="Ellipse 37" cx="6" cy="6" r="6" transform="translate(10 11)" fill="#2979FF" stroke="#ffffff" stroke-linejoin="round" stroke-miterlimit="10" stroke-width="2"/>

  </g>
</svg>
