<svg xmlns="http://www.w3.org/2000/svg" width="23.168" height="17" viewBox="0 0 23.168 17">
  <g id="iconfinder_Computers_and_Hardware_video_camera_6579051" transform="translate(-2.5 -7.5)">
    <path id="Path_69" data-name="Path 69" d="M17,8H6a2.946,2.946,0,0,0-3,3V21a2.946,2.946,0,0,0,3,3H17a2.946,2.946,0,0,0,3-3V11A2.946,2.946,0,0,0,17,8Z" fill="none" stroke="#000" stroke-width="1"/>
    <path id="Path_70" data-name="Path 70" d="M26.8,8.032a.87.87,0,0,0-.738,0L22.369,9.675a.565.565,0,0,0-.369.493V14.55a.565.565,0,0,0,.369.493l3.692,1.643a.715.715,0,0,0,.369.055.867.867,0,0,0,.369-.055.565.565,0,0,0,.369-.493V8.525A.565.565,0,0,0,26.8,8.032Z" transform="translate(-2 3.502)" fill="none" stroke="#000" stroke-width="1"/>
  </g>
</svg>
